<?xml version="1.0" encoding="utf-8"?>
<!-- Generator: Adobe Illustrator 25.4.1, SVG Export Plug-In . SVG Version: 6.00 Build 0)  -->
<svg version="1.1" id="Capa_1" xmlns="http://www.w3.org/2000/svg" xmlns:xlink="http://www.w3.org/1999/xlink" x="0px" y="0px"
	 viewBox="0 0 600.1 290.7" style="enable-background:new 0 0 600.1 290.7;" xml:space="preserve">
<style type="text/css">
	.st0{fill:#0CAACA;}
	.st1{fill:#054283;}
	.st2{fill:#190B2B;}
	.st3{fill:#FFFFFF;}
	.st4{fill:none;stroke:#1A2E35;stroke-width:2.1578;stroke-linecap:round;stroke-linejoin:round;}
</style>
<path class="st0" d="M578,95l-459.8,0c-7.2,0-13,5.8-13,13l0,24.5h0v29.3c0,7.2,5.8,13,13,13l21.6,0l-8.4,21.3
	c-1.5,4.6,1.2,8,6.5,4.9l47.7-26.1l395.2,0c3.3-0.1,10.2-7.6,10.2-13l0-53.8C591,100.9,585.2,95,578,95L578,95z"/>
<path class="st1" d="M20.3,244.2c-5.7-0.5-12.2-7.2-11.8-13.9L6,74c0-2.1,1.6-4.9,3-6.2s4.2-1.9,5.9-1.9c0.5,0,0.9,0.1,1.4,0.2
	l48.3,14.1c4.5,1,7.9,5,8.2,9.6l13.7,147.8c0,1.9-0.4,3.3-0.5,4.2c-0.2,1.6-1.2,2.9-2.3,4.1c-1.5,1.6-3.2,2.5-5.3,2.5L20.3,244.2z"
	/>
<path class="st2" d="M78.7,244.2c-0.2,0-0.4,0-0.5,0l-55-4.2c-5.7-0.5-10.1-5.1-10.2-10.8L10.1,72.9c0-1.7,0.6-3.3,1.8-4.6
	c1.2-1.2,2.8-1.9,4.5-1.9c0.5,0,0.9,0.1,1.4,0.2l50.8,12.5c4.5,1,7.9,5,8.2,9.6l9.5,147.2c0.1,2.2-0.6,4.2-2.1,5.8
	C82.9,243.3,80.8,244.2,78.7,244.2L78.7,244.2z"/>
<path class="st3" d="M12.9,74.1l2.8,154.7c0.1,4.8,3.8,8.7,8.5,9.1l54,4.5c3.6,0.2,6.6-2.7,6.4-6.4L75.1,88.8c-0.3-3.9-3-7.1-6.8-8
	L18.4,69.6C15.6,68.9,12.8,71.1,12.9,74.1z"/>
<path class="st0" d="M84.6,236l-2.2-33.8l-0.4-6.7l-67-8.2l0.1,6.8l0.6,34.8c0.1,4.8,3.8,8.7,8.5,9.1l54,4.5
	C81.9,242.6,84.9,239.6,84.6,236z"/>
<path class="st0" d="M75.4,93.1L13,80.5l-0.1-6.4c-0.1-3,2.7-5.2,5.5-4.5l49.9,11.3c3.8,0.9,6.6,4.1,6.8,8L75.4,93.1z"/>
<g>
	<path class="st3" d="M75.2,203.7c-0.1,0-0.1,0-0.2,0l-50.7-6.2c-0.9-0.1-1.5-0.9-1.4-1.8c0.1-0.9,0.9-1.5,1.8-1.4l50.7,6.2
		c0.9,0.1,1.5,0.9,1.4,1.8C76.6,203.1,76,203.7,75.2,203.7z"/>
</g>
<g>
	<path class="st3" d="M159,160.4c-3.8,1.8-8.8,2.8-14.9,2.8c-8,0-14.3-2.3-18.9-7c-4.6-4.7-6.9-11-6.9-18.8c0-8.3,2.6-15.1,7.7-20.3
		c5.1-5.2,11.8-7.8,20-7.8c5.1,0,9.4,0.6,12.9,1.9v11.3c-3.5-2.1-7.5-3.1-11.9-3.1c-4.9,0-8.8,1.5-11.8,4.6c-3,3.1-4.5,7.2-4.5,12.5
		c0,5,1.4,9.1,4.3,12c2.8,3,6.6,4.5,11.4,4.5c4.6,0,8.8-1.1,12.6-3.3V160.4z"/>
	<path class="st3" d="M172.8,119.2c-1.9,0-3.5-0.6-4.8-1.7c-1.2-1.1-1.9-2.6-1.9-4.2c0-1.7,0.6-3.1,1.9-4.2c1.2-1.1,2.8-1.6,4.8-1.6
		c2,0,3.6,0.5,4.8,1.6s1.8,2.5,1.8,4.2c0,1.7-0.6,3.2-1.8,4.3C176.4,118.6,174.8,119.2,172.8,119.2z M178.5,162.3H167v-37.2h11.5
		V162.3z"/>
	<path class="st3" d="M210.6,161.9c-1.7,0.9-4.3,1.3-7.7,1.3c-8.1,0-12.1-4.2-12.1-12.6v-17h-6v-8.5h6v-8l11.4-3.3v11.3h8.4v8.5
		h-8.4v15c0,3.9,1.5,5.8,4.6,5.8c1.2,0,2.5-0.4,3.7-1.1V161.9z"/>
	<path class="st3" d="M248,162.3h-10.9v-5.3H237c-2.5,4.2-6.2,6.2-11.1,6.2c-3.6,0-6.4-1-8.5-3.1c-2.1-2-3.1-4.8-3.1-8.2
		c0-7.2,4.3-11.4,12.8-12.5l10.1-1.3c0-4.1-2.2-6.1-6.6-6.1c-4.4,0-8.6,1.3-12.6,4v-8.6c1.6-0.8,3.8-1.5,6.6-2.2
		c2.8-0.6,5.3-0.9,7.6-0.9c10.6,0,15.9,5.3,15.9,15.9V162.3z M237.2,147.2v-2.5l-6.8,0.9c-3.7,0.5-5.6,2.2-5.6,5
		c0,1.3,0.5,2.4,1.4,3.2c0.9,0.8,2.1,1.3,3.7,1.3c2.2,0,3.9-0.7,5.3-2.2C236.6,151.3,237.2,149.5,237.2,147.2z"/>
	<path class="st3" d="M254.7,161.3V152c1.9,1.1,3.8,2,5.6,2.5c1.9,0.6,3.7,0.8,5.3,0.8c2,0,3.6-0.3,4.8-0.8c1.2-0.6,1.8-1.4,1.8-2.5
		c0-0.7-0.3-1.3-0.8-1.8c-0.5-0.5-1.2-0.9-2.1-1.3s-1.8-0.7-2.7-1c-1-0.3-1.9-0.6-2.9-1c-1.5-0.6-2.8-1.2-3.9-1.8
		c-1.1-0.6-2.1-1.4-2.8-2.2c-0.8-0.8-1.3-1.8-1.7-2.9c-0.4-1.1-0.6-2.4-0.6-4c0-2.1,0.5-3.9,1.4-5.4c0.9-1.5,2.1-2.7,3.6-3.7
		c1.5-1,3.2-1.7,5.2-2.1c1.9-0.4,4-0.7,6.1-0.7c1.6,0,3.3,0.1,5,0.4c1.7,0.3,3.4,0.6,5,1.1v8.9c-1.5-0.8-3-1.5-4.7-1.9
		c-1.7-0.4-3.3-0.6-4.9-0.6c-0.8,0-1.5,0.1-2.1,0.2s-1.3,0.3-1.8,0.6c-0.5,0.3-0.9,0.6-1.2,1c-0.3,0.4-0.4,0.9-0.4,1.4
		c0,0.7,0.2,1.3,0.7,1.7c0.4,0.5,1,0.9,1.7,1.3c0.7,0.4,1.5,0.7,2.3,0.9c0.9,0.3,1.7,0.6,2.6,0.9c1.5,0.5,2.9,1.1,4.1,1.7
		c1.2,0.6,2.3,1.4,3.2,2.2c0.9,0.8,1.6,1.8,2,3c0.5,1.1,0.7,2.5,0.7,4.1c0,2.2-0.5,4.1-1.4,5.6c-1,1.6-2.2,2.8-3.8,3.8
		c-1.6,1-3.4,1.7-5.5,2.1c-2.1,0.4-4.2,0.7-6.4,0.7C262,163.2,258.2,162.6,254.7,161.3z"/>
	<path class="st3" d="M343.8,147h-24.3c0.4,5.4,3.8,8.1,10.2,8.1c4.1,0,7.7-1,10.8-2.9v8.3c-3.4,1.8-7.9,2.8-13.4,2.8
		c-6,0-10.7-1.7-14-5c-3.3-3.3-5-8-5-13.9c0-6.2,1.8-11.1,5.4-14.7c3.6-3.6,8-5.4,13.2-5.4c5.4,0,9.6,1.6,12.6,4.8
		c3,3.2,4.5,7.6,4.5,13.1V147z M333.2,139.9c0-5.3-2.2-8-6.5-8c-1.8,0-3.4,0.8-4.8,2.3c-1.3,1.5-2.2,3.4-2.5,5.7H333.2z"/>
	<path class="st3" d="M386.6,162.3h-11.4v-20.7c0-5.8-2.1-8.6-6.2-8.6c-2,0-3.6,0.8-4.9,2.3c-1.3,1.5-1.9,3.5-1.9,5.8v21.2h-11.5
		v-37.2h11.5v5.9h0.1c2.7-4.5,6.7-6.8,12-6.8c8.2,0,12.4,5.1,12.4,15.3V162.3z"/>
	<path class="st3" d="M427.7,162.3h-11.5v-55.1h11.5V162.3z"/>
	<path class="st3" d="M454.7,107.5l-11.4,11.7h-8.3l9.4-11.7H454.7z M448.8,162.3h-11.5v-37.2h11.5V162.3z"/>
	<path class="st3" d="M494.4,162.3h-11.4v-20.7c0-5.8-2.1-8.6-6.2-8.6c-2,0-3.6,0.8-4.9,2.3c-1.3,1.5-1.9,3.5-1.9,5.8v21.2h-11.5
		v-37.2h11.5v5.9h0.1c2.7-4.5,6.7-6.8,12-6.8c8.2,0,12.4,5.1,12.4,15.3V162.3z"/>
	<path class="st3" d="M536.9,147h-24.3c0.4,5.4,3.8,8.1,10.2,8.1c4.1,0,7.7-1,10.8-2.9v8.3c-3.4,1.8-7.9,2.8-13.4,2.8
		c-6,0-10.7-1.7-14-5c-3.3-3.3-5-8-5-13.9c0-6.2,1.8-11.1,5.4-14.7c3.6-3.6,8-5.4,13.2-5.4c5.4,0,9.6,1.6,12.6,4.8
		c3,3.2,4.5,7.6,4.5,13.1V147z M526.3,139.9c0-5.3-2.2-8-6.5-8c-1.8,0-3.4,0.8-4.8,2.3c-1.3,1.5-2.2,3.4-2.5,5.7H526.3z"/>
	<path class="st3" d="M574.7,162.3h-10.9v-5.3h-0.1c-2.5,4.2-6.2,6.2-11.1,6.2c-3.6,0-6.4-1-8.5-3.1c-2.1-2-3.1-4.8-3.1-8.2
		c0-7.2,4.3-11.4,12.8-12.5l10.1-1.3c0-4.1-2.2-6.1-6.6-6.1c-4.4,0-8.6,1.3-12.6,4v-8.6c1.6-0.8,3.8-1.5,6.6-2.2
		c2.8-0.6,5.3-0.9,7.6-0.9c10.6,0,15.9,5.3,15.9,15.9V162.3z M563.9,147.2v-2.5l-6.8,0.9c-3.7,0.5-5.6,2.2-5.6,5
		c0,1.3,0.5,2.4,1.4,3.2c0.9,0.8,2.1,1.3,3.7,1.3c2.2,0,3.9-0.7,5.3-2.2C563.2,151.3,563.9,149.5,563.9,147.2z"/>
</g>
<g>
	<path class="st4" d="M583.1,173.9c4.7-2,8-6.6,8-12l0-53.8c0-7.2-5.8-13-13-13"/>
	<polyline class="st4" points="140.6,199.6 185.6,174.9 579.5,174.9 	"/>
	<path class="st4" d="M105.1,143.8v18.1c0,7.2,5.8,13,13,13l21.6,0l-8.4,21.3c-1.5,4.6,1.2,8,6.5,4.9"/>
	<line class="st4" x1="105.1" y1="136.5" x2="105.1" y2="140.1"/>
	<path class="st4" d="M574,95l-455.8,0c-7.2,0-13,5.8-13,13l0,24.5"/>
</g>
</svg>
